<mxfile host="app.diagrams.net" modified="2023-09-20T09:42:13.195Z" agent="Mozilla/5.0 (Windows NT 10.0; Win64; x64; rv:109.0) Gecko/20100101 Firefox/117.0" etag="NE1nu6d0TNT5wDz6eNuk" version="21.7.5" type="device">
  <diagram id="C5RBs43oDa-KdzZeNtuy" name="Page-1">
    <mxGraphModel dx="1994" dy="620" grid="1" gridSize="10" guides="1" tooltips="1" connect="1" arrows="1" fold="1" page="1" pageScale="1" pageWidth="827" pageHeight="1169" math="0" shadow="0">
      <root>
        <mxCell id="WIyWlLk6GJQsqaUBKTNV-0" />
        <mxCell id="WIyWlLk6GJQsqaUBKTNV-1" parent="WIyWlLk6GJQsqaUBKTNV-0" />
        <mxCell id="_UMosC8e2mGNgWZh9Iq2-2" style="edgeStyle=orthogonalEdgeStyle;rounded=0;orthogonalLoop=1;jettySize=auto;html=1;exitX=0.5;exitY=1;exitDx=0;exitDy=0;entryX=0.5;entryY=0;entryDx=0;entryDy=0;entryPerimeter=0;" edge="1" parent="WIyWlLk6GJQsqaUBKTNV-1" target="_UMosC8e2mGNgWZh9Iq2-1">
          <mxGeometry relative="1" as="geometry">
            <mxPoint x="390" y="130" as="sourcePoint" />
          </mxGeometry>
        </mxCell>
        <mxCell id="_UMosC8e2mGNgWZh9Iq2-5" style="edgeStyle=orthogonalEdgeStyle;rounded=0;orthogonalLoop=1;jettySize=auto;html=1;exitX=1;exitY=0.5;exitDx=0;exitDy=0;exitPerimeter=0;" edge="1" parent="WIyWlLk6GJQsqaUBKTNV-1" source="_UMosC8e2mGNgWZh9Iq2-1">
          <mxGeometry relative="1" as="geometry">
            <mxPoint x="560" y="250" as="targetPoint" />
          </mxGeometry>
        </mxCell>
        <mxCell id="_UMosC8e2mGNgWZh9Iq2-71" value="" style="edgeStyle=orthogonalEdgeStyle;rounded=0;orthogonalLoop=1;jettySize=auto;html=1;" edge="1" parent="WIyWlLk6GJQsqaUBKTNV-1" source="_UMosC8e2mGNgWZh9Iq2-1" target="_UMosC8e2mGNgWZh9Iq2-70">
          <mxGeometry relative="1" as="geometry" />
        </mxCell>
        <mxCell id="_UMosC8e2mGNgWZh9Iq2-1" value="Sign up or Sign in" style="strokeWidth=2;html=1;shape=mxgraph.flowchart.decision;whiteSpace=wrap;" vertex="1" parent="WIyWlLk6GJQsqaUBKTNV-1">
          <mxGeometry x="340" y="200" width="100" height="100" as="geometry" />
        </mxCell>
        <mxCell id="_UMosC8e2mGNgWZh9Iq2-6" value="Sign up" style="text;html=1;strokeColor=none;fillColor=none;align=center;verticalAlign=middle;whiteSpace=wrap;rounded=0;" vertex="1" parent="WIyWlLk6GJQsqaUBKTNV-1">
          <mxGeometry x="460" y="220" width="60" height="30" as="geometry" />
        </mxCell>
        <mxCell id="_UMosC8e2mGNgWZh9Iq2-12" value="" style="edgeStyle=orthogonalEdgeStyle;rounded=0;orthogonalLoop=1;jettySize=auto;html=1;" edge="1" parent="WIyWlLk6GJQsqaUBKTNV-1" source="_UMosC8e2mGNgWZh9Iq2-7" target="_UMosC8e2mGNgWZh9Iq2-11">
          <mxGeometry relative="1" as="geometry" />
        </mxCell>
        <mxCell id="_UMosC8e2mGNgWZh9Iq2-7" value="Get: Username, password, Email" style="rounded=0;whiteSpace=wrap;html=1;" vertex="1" parent="WIyWlLk6GJQsqaUBKTNV-1">
          <mxGeometry x="560" y="220" width="120" height="60" as="geometry" />
        </mxCell>
        <mxCell id="_UMosC8e2mGNgWZh9Iq2-9" value="Login" style="strokeWidth=2;html=1;shape=mxgraph.flowchart.start_1;whiteSpace=wrap;" vertex="1" parent="WIyWlLk6GJQsqaUBKTNV-1">
          <mxGeometry x="330" y="70" width="120" height="60" as="geometry" />
        </mxCell>
        <mxCell id="_UMosC8e2mGNgWZh9Iq2-14" value="" style="edgeStyle=orthogonalEdgeStyle;rounded=0;orthogonalLoop=1;jettySize=auto;html=1;" edge="1" parent="WIyWlLk6GJQsqaUBKTNV-1" source="_UMosC8e2mGNgWZh9Iq2-11" target="_UMosC8e2mGNgWZh9Iq2-13">
          <mxGeometry relative="1" as="geometry" />
        </mxCell>
        <mxCell id="_UMosC8e2mGNgWZh9Iq2-91" value="" style="edgeStyle=orthogonalEdgeStyle;rounded=0;orthogonalLoop=1;jettySize=auto;html=1;" edge="1" parent="WIyWlLk6GJQsqaUBKTNV-1" source="_UMosC8e2mGNgWZh9Iq2-11" target="_UMosC8e2mGNgWZh9Iq2-90">
          <mxGeometry relative="1" as="geometry" />
        </mxCell>
        <mxCell id="_UMosC8e2mGNgWZh9Iq2-11" value="Input valid?" style="rhombus;whiteSpace=wrap;html=1;rounded=0;" vertex="1" parent="WIyWlLk6GJQsqaUBKTNV-1">
          <mxGeometry x="580" y="350" width="80" height="80" as="geometry" />
        </mxCell>
        <mxCell id="_UMosC8e2mGNgWZh9Iq2-16" style="edgeStyle=orthogonalEdgeStyle;rounded=0;orthogonalLoop=1;jettySize=auto;html=1;entryX=0.5;entryY=0;entryDx=0;entryDy=0;" edge="1" parent="WIyWlLk6GJQsqaUBKTNV-1" source="_UMosC8e2mGNgWZh9Iq2-13" target="_UMosC8e2mGNgWZh9Iq2-7">
          <mxGeometry relative="1" as="geometry">
            <Array as="points">
              <mxPoint x="750" y="200" />
              <mxPoint x="620" y="200" />
            </Array>
          </mxGeometry>
        </mxCell>
        <mxCell id="_UMosC8e2mGNgWZh9Iq2-13" value="Error" style="whiteSpace=wrap;html=1;rounded=0;" vertex="1" parent="WIyWlLk6GJQsqaUBKTNV-1">
          <mxGeometry x="690" y="360" width="120" height="60" as="geometry" />
        </mxCell>
        <mxCell id="_UMosC8e2mGNgWZh9Iq2-36" style="edgeStyle=orthogonalEdgeStyle;rounded=0;orthogonalLoop=1;jettySize=auto;html=1;" edge="1" parent="WIyWlLk6GJQsqaUBKTNV-1" source="_UMosC8e2mGNgWZh9Iq2-17" target="_UMosC8e2mGNgWZh9Iq2-27">
          <mxGeometry relative="1" as="geometry" />
        </mxCell>
        <mxCell id="_UMosC8e2mGNgWZh9Iq2-17" value="Email verification" style="whiteSpace=wrap;html=1;rounded=0;" vertex="1" parent="WIyWlLk6GJQsqaUBKTNV-1">
          <mxGeometry x="389" y="525" width="120" height="60" as="geometry" />
        </mxCell>
        <mxCell id="_UMosC8e2mGNgWZh9Iq2-31" value="" style="edgeStyle=orthogonalEdgeStyle;rounded=0;orthogonalLoop=1;jettySize=auto;html=1;" edge="1" parent="WIyWlLk6GJQsqaUBKTNV-1" source="_UMosC8e2mGNgWZh9Iq2-27" target="_UMosC8e2mGNgWZh9Iq2-30">
          <mxGeometry relative="1" as="geometry" />
        </mxCell>
        <mxCell id="_UMosC8e2mGNgWZh9Iq2-38" value="" style="edgeStyle=orthogonalEdgeStyle;rounded=0;orthogonalLoop=1;jettySize=auto;html=1;" edge="1" parent="WIyWlLk6GJQsqaUBKTNV-1" source="_UMosC8e2mGNgWZh9Iq2-27" target="_UMosC8e2mGNgWZh9Iq2-37">
          <mxGeometry relative="1" as="geometry" />
        </mxCell>
        <mxCell id="_UMosC8e2mGNgWZh9Iq2-27" value="Generate Verficiationcode" style="whiteSpace=wrap;html=1;rounded=0;" vertex="1" parent="WIyWlLk6GJQsqaUBKTNV-1">
          <mxGeometry x="289" y="790" width="120" height="60" as="geometry" />
        </mxCell>
        <mxCell id="_UMosC8e2mGNgWZh9Iq2-30" value="Code-Database" style="strokeWidth=2;html=1;shape=mxgraph.flowchart.database;whiteSpace=wrap;" vertex="1" parent="WIyWlLk6GJQsqaUBKTNV-1">
          <mxGeometry x="139" y="790" width="70" height="100" as="geometry" />
        </mxCell>
        <mxCell id="_UMosC8e2mGNgWZh9Iq2-32" value="Store in Database" style="text;html=1;strokeColor=none;fillColor=none;align=center;verticalAlign=middle;whiteSpace=wrap;rounded=0;" vertex="1" parent="WIyWlLk6GJQsqaUBKTNV-1">
          <mxGeometry x="219" y="790" width="60" height="30" as="geometry" />
        </mxCell>
        <mxCell id="_UMosC8e2mGNgWZh9Iq2-40" value="" style="edgeStyle=orthogonalEdgeStyle;rounded=0;orthogonalLoop=1;jettySize=auto;html=1;" edge="1" parent="WIyWlLk6GJQsqaUBKTNV-1" source="_UMosC8e2mGNgWZh9Iq2-37" target="_UMosC8e2mGNgWZh9Iq2-39">
          <mxGeometry relative="1" as="geometry" />
        </mxCell>
        <mxCell id="_UMosC8e2mGNgWZh9Iq2-37" value="Send Code at Email-address" style="whiteSpace=wrap;html=1;rounded=0;" vertex="1" parent="WIyWlLk6GJQsqaUBKTNV-1">
          <mxGeometry x="289" y="900" width="120" height="60" as="geometry" />
        </mxCell>
        <mxCell id="_UMosC8e2mGNgWZh9Iq2-42" value="" style="edgeStyle=orthogonalEdgeStyle;rounded=0;orthogonalLoop=1;jettySize=auto;html=1;" edge="1" parent="WIyWlLk6GJQsqaUBKTNV-1" source="_UMosC8e2mGNgWZh9Iq2-39" target="_UMosC8e2mGNgWZh9Iq2-41">
          <mxGeometry relative="1" as="geometry" />
        </mxCell>
        <mxCell id="_UMosC8e2mGNgWZh9Iq2-53" value="" style="edgeStyle=orthogonalEdgeStyle;rounded=0;orthogonalLoop=1;jettySize=auto;html=1;" edge="1" parent="WIyWlLk6GJQsqaUBKTNV-1" source="_UMosC8e2mGNgWZh9Iq2-39" target="_UMosC8e2mGNgWZh9Iq2-52">
          <mxGeometry relative="1" as="geometry" />
        </mxCell>
        <mxCell id="_UMosC8e2mGNgWZh9Iq2-39" value="Get: userinput code via website" style="whiteSpace=wrap;html=1;rounded=0;" vertex="1" parent="WIyWlLk6GJQsqaUBKTNV-1">
          <mxGeometry x="289" y="990" width="120" height="60" as="geometry" />
        </mxCell>
        <mxCell id="_UMosC8e2mGNgWZh9Iq2-45" value="" style="edgeStyle=orthogonalEdgeStyle;rounded=0;orthogonalLoop=1;jettySize=auto;html=1;" edge="1" parent="WIyWlLk6GJQsqaUBKTNV-1" source="_UMosC8e2mGNgWZh9Iq2-41" target="_UMosC8e2mGNgWZh9Iq2-44">
          <mxGeometry relative="1" as="geometry" />
        </mxCell>
        <mxCell id="_UMosC8e2mGNgWZh9Iq2-57" style="edgeStyle=orthogonalEdgeStyle;rounded=0;orthogonalLoop=1;jettySize=auto;html=1;exitX=1;exitY=0.5;exitDx=0;exitDy=0;entryX=0;entryY=0.5;entryDx=0;entryDy=0;entryPerimeter=0;" edge="1" parent="WIyWlLk6GJQsqaUBKTNV-1" source="_UMosC8e2mGNgWZh9Iq2-41" target="_UMosC8e2mGNgWZh9Iq2-56">
          <mxGeometry relative="1" as="geometry" />
        </mxCell>
        <mxCell id="_UMosC8e2mGNgWZh9Iq2-41" value="Code valid?" style="rhombus;whiteSpace=wrap;html=1;rounded=0;" vertex="1" parent="WIyWlLk6GJQsqaUBKTNV-1">
          <mxGeometry x="309" y="1120" width="80" height="80" as="geometry" />
        </mxCell>
        <mxCell id="_UMosC8e2mGNgWZh9Iq2-46" style="edgeStyle=orthogonalEdgeStyle;rounded=0;orthogonalLoop=1;jettySize=auto;html=1;entryX=0;entryY=0.5;entryDx=0;entryDy=0;" edge="1" parent="WIyWlLk6GJQsqaUBKTNV-1" source="_UMosC8e2mGNgWZh9Iq2-44" target="_UMosC8e2mGNgWZh9Iq2-39">
          <mxGeometry relative="1" as="geometry">
            <Array as="points">
              <mxPoint x="189" y="1020" />
            </Array>
          </mxGeometry>
        </mxCell>
        <mxCell id="_UMosC8e2mGNgWZh9Iq2-44" value="Error" style="whiteSpace=wrap;html=1;rounded=0;" vertex="1" parent="WIyWlLk6GJQsqaUBKTNV-1">
          <mxGeometry x="129" y="1130" width="120" height="60" as="geometry" />
        </mxCell>
        <mxCell id="_UMosC8e2mGNgWZh9Iq2-55" style="edgeStyle=orthogonalEdgeStyle;rounded=0;orthogonalLoop=1;jettySize=auto;html=1;exitX=0;exitY=0;exitDx=0;exitDy=0;entryX=1;entryY=0.25;entryDx=0;entryDy=0;" edge="1" parent="WIyWlLk6GJQsqaUBKTNV-1" source="_UMosC8e2mGNgWZh9Iq2-52" target="_UMosC8e2mGNgWZh9Iq2-39">
          <mxGeometry relative="1" as="geometry" />
        </mxCell>
        <mxCell id="_UMosC8e2mGNgWZh9Iq2-62" style="edgeStyle=orthogonalEdgeStyle;rounded=0;orthogonalLoop=1;jettySize=auto;html=1;exitX=1;exitY=0.5;exitDx=0;exitDy=0;" edge="1" parent="WIyWlLk6GJQsqaUBKTNV-1" source="_UMosC8e2mGNgWZh9Iq2-52" target="_UMosC8e2mGNgWZh9Iq2-61">
          <mxGeometry relative="1" as="geometry" />
        </mxCell>
        <mxCell id="_UMosC8e2mGNgWZh9Iq2-52" value="Resend code?" style="rhombus;whiteSpace=wrap;html=1;rounded=0;" vertex="1" parent="WIyWlLk6GJQsqaUBKTNV-1">
          <mxGeometry x="509" y="980" width="80" height="80" as="geometry" />
        </mxCell>
        <mxCell id="_UMosC8e2mGNgWZh9Iq2-56" value="" style="strokeWidth=2;html=1;shape=mxgraph.flowchart.annotation_1;align=left;pointerEvents=1;rotation=90;" vertex="1" parent="WIyWlLk6GJQsqaUBKTNV-1">
          <mxGeometry x="484" y="1160" width="50" height="100" as="geometry" />
        </mxCell>
        <mxCell id="_UMosC8e2mGNgWZh9Iq2-63" style="edgeStyle=orthogonalEdgeStyle;rounded=0;orthogonalLoop=1;jettySize=auto;html=1;entryX=0.5;entryY=0;entryDx=0;entryDy=0;entryPerimeter=0;" edge="1" parent="WIyWlLk6GJQsqaUBKTNV-1" source="_UMosC8e2mGNgWZh9Iq2-61" target="_UMosC8e2mGNgWZh9Iq2-30">
          <mxGeometry relative="1" as="geometry">
            <Array as="points">
              <mxPoint x="639" y="720" />
              <mxPoint x="179" y="720" />
            </Array>
          </mxGeometry>
        </mxCell>
        <mxCell id="_UMosC8e2mGNgWZh9Iq2-65" style="edgeStyle=orthogonalEdgeStyle;rounded=0;orthogonalLoop=1;jettySize=auto;html=1;entryX=0.5;entryY=1;entryDx=0;entryDy=0;" edge="1" parent="WIyWlLk6GJQsqaUBKTNV-1" source="_UMosC8e2mGNgWZh9Iq2-61" target="_UMosC8e2mGNgWZh9Iq2-17">
          <mxGeometry relative="1" as="geometry" />
        </mxCell>
        <mxCell id="_UMosC8e2mGNgWZh9Iq2-61" value="Delete former Code-Entry" style="rounded=0;whiteSpace=wrap;html=1;" vertex="1" parent="WIyWlLk6GJQsqaUBKTNV-1">
          <mxGeometry x="579" y="790" width="120" height="60" as="geometry" />
        </mxCell>
        <mxCell id="_UMosC8e2mGNgWZh9Iq2-88" style="edgeStyle=orthogonalEdgeStyle;rounded=0;orthogonalLoop=1;jettySize=auto;html=1;entryX=1;entryY=0.5;entryDx=0;entryDy=0;" edge="1" parent="WIyWlLk6GJQsqaUBKTNV-1" source="_UMosC8e2mGNgWZh9Iq2-66" target="_UMosC8e2mGNgWZh9Iq2-86">
          <mxGeometry relative="1" as="geometry" />
        </mxCell>
        <mxCell id="_UMosC8e2mGNgWZh9Iq2-97" style="edgeStyle=orthogonalEdgeStyle;rounded=0;orthogonalLoop=1;jettySize=auto;html=1;" edge="1" parent="WIyWlLk6GJQsqaUBKTNV-1" source="_UMosC8e2mGNgWZh9Iq2-66">
          <mxGeometry relative="1" as="geometry">
            <mxPoint x="280" y="440" as="targetPoint" />
            <Array as="points">
              <mxPoint x="-115" y="440" />
            </Array>
          </mxGeometry>
        </mxCell>
        <mxCell id="_UMosC8e2mGNgWZh9Iq2-66" value="Account-database" style="strokeWidth=2;html=1;shape=mxgraph.flowchart.database;whiteSpace=wrap;" vertex="1" parent="WIyWlLk6GJQsqaUBKTNV-1">
          <mxGeometry x="-230" y="550" width="230" height="300" as="geometry" />
        </mxCell>
        <mxCell id="_UMosC8e2mGNgWZh9Iq2-69" style="edgeStyle=orthogonalEdgeStyle;rounded=0;orthogonalLoop=1;jettySize=auto;html=1;entryX=1;entryY=0.5;entryDx=0;entryDy=0;exitX=1;exitY=0.5;exitDx=0;exitDy=0;" edge="1" parent="WIyWlLk6GJQsqaUBKTNV-1" source="_UMosC8e2mGNgWZh9Iq2-68">
          <mxGeometry relative="1" as="geometry">
            <mxPoint x="450" y="100" as="targetPoint" />
            <mxPoint x="730" y="1000" as="sourcePoint" />
            <Array as="points">
              <mxPoint x="600" y="1000" />
              <mxPoint x="860" y="1000" />
              <mxPoint x="860" y="100" />
            </Array>
          </mxGeometry>
        </mxCell>
        <mxCell id="_UMosC8e2mGNgWZh9Iq2-68" value="Go back to Login&amp;nbsp; screen" style="rounded=0;whiteSpace=wrap;html=1;" vertex="1" parent="WIyWlLk6GJQsqaUBKTNV-1">
          <mxGeometry x="499" y="1230" width="120" height="60" as="geometry" />
        </mxCell>
        <mxCell id="_UMosC8e2mGNgWZh9Iq2-74" value="" style="edgeStyle=orthogonalEdgeStyle;rounded=0;orthogonalLoop=1;jettySize=auto;html=1;" edge="1" parent="WIyWlLk6GJQsqaUBKTNV-1" source="_UMosC8e2mGNgWZh9Iq2-70">
          <mxGeometry relative="1" as="geometry">
            <mxPoint x="-490" y="350" as="targetPoint" />
          </mxGeometry>
        </mxCell>
        <mxCell id="_UMosC8e2mGNgWZh9Iq2-70" value="Get: Email and password" style="whiteSpace=wrap;html=1;strokeWidth=2;" vertex="1" parent="WIyWlLk6GJQsqaUBKTNV-1">
          <mxGeometry x="-550" y="220" width="120" height="60" as="geometry" />
        </mxCell>
        <mxCell id="_UMosC8e2mGNgWZh9Iq2-72" value="Sign in" style="text;html=1;strokeColor=none;fillColor=none;align=center;verticalAlign=middle;whiteSpace=wrap;rounded=0;" vertex="1" parent="WIyWlLk6GJQsqaUBKTNV-1">
          <mxGeometry x="-90" y="210" width="60" height="30" as="geometry" />
        </mxCell>
        <mxCell id="_UMosC8e2mGNgWZh9Iq2-82" style="edgeStyle=orthogonalEdgeStyle;rounded=0;orthogonalLoop=1;jettySize=auto;html=1;" edge="1" parent="WIyWlLk6GJQsqaUBKTNV-1" source="_UMosC8e2mGNgWZh9Iq2-75" target="_UMosC8e2mGNgWZh9Iq2-66">
          <mxGeometry relative="1" as="geometry" />
        </mxCell>
        <mxCell id="_UMosC8e2mGNgWZh9Iq2-87" value="" style="edgeStyle=orthogonalEdgeStyle;rounded=0;orthogonalLoop=1;jettySize=auto;html=1;" edge="1" parent="WIyWlLk6GJQsqaUBKTNV-1" source="_UMosC8e2mGNgWZh9Iq2-75" target="_UMosC8e2mGNgWZh9Iq2-86">
          <mxGeometry relative="1" as="geometry" />
        </mxCell>
        <mxCell id="_UMosC8e2mGNgWZh9Iq2-75" value="Get Accountdata" style="rounded=0;whiteSpace=wrap;html=1;" vertex="1" parent="WIyWlLk6GJQsqaUBKTNV-1">
          <mxGeometry x="-550" y="350" width="120" height="60" as="geometry" />
        </mxCell>
        <mxCell id="_UMosC8e2mGNgWZh9Iq2-81" style="edgeStyle=orthogonalEdgeStyle;rounded=0;orthogonalLoop=1;jettySize=auto;html=1;" edge="1" parent="WIyWlLk6GJQsqaUBKTNV-1" source="_UMosC8e2mGNgWZh9Iq2-78" target="_UMosC8e2mGNgWZh9Iq2-66">
          <mxGeometry relative="1" as="geometry" />
        </mxCell>
        <mxCell id="_UMosC8e2mGNgWZh9Iq2-78" value="Accountdaten speichern" style="rounded=0;whiteSpace=wrap;html=1;" vertex="1" parent="WIyWlLk6GJQsqaUBKTNV-1">
          <mxGeometry x="359" y="1230" width="120" height="60" as="geometry" />
        </mxCell>
        <mxCell id="_UMosC8e2mGNgWZh9Iq2-83" value="Store in" style="text;html=1;strokeColor=none;fillColor=none;align=center;verticalAlign=middle;whiteSpace=wrap;rounded=0;" vertex="1" parent="WIyWlLk6GJQsqaUBKTNV-1">
          <mxGeometry x="139" y="1230" width="60" height="30" as="geometry" />
        </mxCell>
        <mxCell id="_UMosC8e2mGNgWZh9Iq2-84" value="SQL REQUEST" style="text;html=1;strokeColor=none;fillColor=none;align=center;verticalAlign=middle;whiteSpace=wrap;rounded=0;" vertex="1" parent="WIyWlLk6GJQsqaUBKTNV-1">
          <mxGeometry x="-300" y="350" width="60" height="30" as="geometry" />
        </mxCell>
        <mxCell id="_UMosC8e2mGNgWZh9Iq2-103" value="" style="edgeStyle=orthogonalEdgeStyle;rounded=0;orthogonalLoop=1;jettySize=auto;html=1;" edge="1" parent="WIyWlLk6GJQsqaUBKTNV-1" source="_UMosC8e2mGNgWZh9Iq2-86" target="_UMosC8e2mGNgWZh9Iq2-101">
          <mxGeometry relative="1" as="geometry" />
        </mxCell>
        <mxCell id="_UMosC8e2mGNgWZh9Iq2-86" value="Fetch Data" style="whiteSpace=wrap;html=1;rounded=0;" vertex="1" parent="WIyWlLk6GJQsqaUBKTNV-1">
          <mxGeometry x="-550" y="490" width="120" height="60" as="geometry" />
        </mxCell>
        <mxCell id="_UMosC8e2mGNgWZh9Iq2-89" value="&lt;div&gt;SQL ANSWER&lt;/div&gt;" style="text;html=1;strokeColor=none;fillColor=none;align=center;verticalAlign=middle;whiteSpace=wrap;rounded=0;" vertex="1" parent="WIyWlLk6GJQsqaUBKTNV-1">
          <mxGeometry x="-390" y="490" width="60" height="30" as="geometry" />
        </mxCell>
        <mxCell id="_UMosC8e2mGNgWZh9Iq2-92" style="edgeStyle=orthogonalEdgeStyle;rounded=0;orthogonalLoop=1;jettySize=auto;html=1;" edge="1" parent="WIyWlLk6GJQsqaUBKTNV-1" source="_UMosC8e2mGNgWZh9Iq2-90" target="_UMosC8e2mGNgWZh9Iq2-66">
          <mxGeometry relative="1" as="geometry" />
        </mxCell>
        <mxCell id="_UMosC8e2mGNgWZh9Iq2-95" style="edgeStyle=orthogonalEdgeStyle;rounded=0;orthogonalLoop=1;jettySize=auto;html=1;" edge="1" parent="WIyWlLk6GJQsqaUBKTNV-1" source="_UMosC8e2mGNgWZh9Iq2-90" target="_UMosC8e2mGNgWZh9Iq2-96">
          <mxGeometry relative="1" as="geometry">
            <mxPoint x="279" y="480" as="targetPoint" />
          </mxGeometry>
        </mxCell>
        <mxCell id="_UMosC8e2mGNgWZh9Iq2-90" value="Check if account already exist" style="rounded=0;whiteSpace=wrap;html=1;" vertex="1" parent="WIyWlLk6GJQsqaUBKTNV-1">
          <mxGeometry x="219" y="360" width="120" height="60" as="geometry" />
        </mxCell>
        <mxCell id="_UMosC8e2mGNgWZh9Iq2-98" value="" style="edgeStyle=orthogonalEdgeStyle;rounded=0;orthogonalLoop=1;jettySize=auto;html=1;" edge="1" parent="WIyWlLk6GJQsqaUBKTNV-1" source="_UMosC8e2mGNgWZh9Iq2-96" target="_UMosC8e2mGNgWZh9Iq2-17">
          <mxGeometry relative="1" as="geometry" />
        </mxCell>
        <mxCell id="_UMosC8e2mGNgWZh9Iq2-99" style="edgeStyle=orthogonalEdgeStyle;rounded=0;orthogonalLoop=1;jettySize=auto;html=1;entryX=0.25;entryY=0;entryDx=0;entryDy=0;" edge="1" parent="WIyWlLk6GJQsqaUBKTNV-1" source="_UMosC8e2mGNgWZh9Iq2-96" target="_UMosC8e2mGNgWZh9Iq2-7">
          <mxGeometry relative="1" as="geometry">
            <Array as="points">
              <mxPoint x="140" y="555" />
              <mxPoint x="140" y="160" />
              <mxPoint x="590" y="160" />
            </Array>
          </mxGeometry>
        </mxCell>
        <mxCell id="_UMosC8e2mGNgWZh9Iq2-96" value="Account already exists?" style="rhombus;whiteSpace=wrap;html=1;" vertex="1" parent="WIyWlLk6GJQsqaUBKTNV-1">
          <mxGeometry x="239" y="515" width="101" height="95" as="geometry" />
        </mxCell>
        <mxCell id="_UMosC8e2mGNgWZh9Iq2-105" style="edgeStyle=orthogonalEdgeStyle;rounded=0;orthogonalLoop=1;jettySize=auto;html=1;exitX=0;exitY=0.5;exitDx=0;exitDy=0;exitPerimeter=0;entryX=0;entryY=0.5;entryDx=0;entryDy=0;" edge="1" parent="WIyWlLk6GJQsqaUBKTNV-1" source="_UMosC8e2mGNgWZh9Iq2-101" target="_UMosC8e2mGNgWZh9Iq2-70">
          <mxGeometry relative="1" as="geometry" />
        </mxCell>
        <mxCell id="_UMosC8e2mGNgWZh9Iq2-106" style="edgeStyle=orthogonalEdgeStyle;rounded=0;orthogonalLoop=1;jettySize=auto;html=1;" edge="1" parent="WIyWlLk6GJQsqaUBKTNV-1" source="_UMosC8e2mGNgWZh9Iq2-101">
          <mxGeometry relative="1" as="geometry">
            <mxPoint x="-490.0000000000002" y="720" as="targetPoint" />
          </mxGeometry>
        </mxCell>
        <mxCell id="_UMosC8e2mGNgWZh9Iq2-101" value="Is accountdata valid?" style="strokeWidth=2;html=1;shape=mxgraph.flowchart.decision;whiteSpace=wrap;" vertex="1" parent="WIyWlLk6GJQsqaUBKTNV-1">
          <mxGeometry x="-540" y="590" width="100" height="100" as="geometry" />
        </mxCell>
        <mxCell id="_UMosC8e2mGNgWZh9Iq2-108" value="Login Completed" style="strokeWidth=2;html=1;shape=mxgraph.flowchart.terminator;whiteSpace=wrap;" vertex="1" parent="WIyWlLk6GJQsqaUBKTNV-1">
          <mxGeometry x="-540" y="720" width="100" height="60" as="geometry" />
        </mxCell>
      </root>
    </mxGraphModel>
  </diagram>
</mxfile>
